#!OML:ASF F:\VICON\USERDATA\INSTALL\rory3\rory3.ASF
:FULLY-SPECIFIED
:DEGREES
3222
root -0.781001 15.5071 0.275134 -8.36747 3.74174 0.159574
lowerback 7.33701 -3.59365 -15.5588
upperback -5.08786 -7.68002 -12.6423
thorax -9.72057 -3.21602 -4.12847
lowerneck 6.47348 -18.3437 -25.6005
upperneck -0.352833 -26.9674 18.6605
head 4.80357 -13.6307 7.55969
rclavicle 0 1.59028e-014
rhumerus 2.89671 -21.0557 -11.5547
rradius 81.2123
rwrist 0.304099
rhand 29.1995 8.36247
rfingers 7.12502
rthumb 52.9858 -11.1388
lclavicle 0 1.59028e-014
lhumerus 35.0478 1.49104 50.645
lradius 96.0938
lwrist 16.5936
lhand 8.13497 33.9313
lfingers 7.12502
lthumb 33.3553 60.8559
rfemur 0.475593 4.92019 22.3423
rtibia 34.8318
rfoot -21.7508 -14.2102
rtoes -8.9213
lfemur 2.44243 -4.68393 -13.8899
ltibia 27.3664
lfoot -16.9714 3.95118
ltoes -12.7198
3223
root -0.775244 15.5091 0.253889 -8.36079 3.3703 -0.0738859
lowerback 7.48676 -3.5848 -15.4999
upperback -4.94607 -7.68041 -12.7122
thorax -9.66409 -3.23007 -4.22504
lowerneck 6.38551 -18.431 -25.4686
upperneck -0.344374 -27.0545 18.6133
head 4.81302 -13.6684 7.50533
rclavicle 1.27222e-014 -6.36111e-015
rhumerus 2.5241 -21.2982 -11.1195
rradius 81.3029
rwrist 0.307396
rhand 29.095 8.21433
rfingers 7.12502
rthumb 52.8915 -11.3465
lclavicle 1.27222e-014 -6.36111e-015
lhumerus 34.9931 1.49796 50.4449
lradius 96.1691
lwrist 16.4005
lhand 8.0891 33.9345
lfingers 7.12502
lthumb 33.3117 60.8684
rfemur 0.32998 5.06413 22.5676
rtibia 34.8008
rfoot -21.5639 -14.0762
rtoes -9.26582
lfemur 2.36231 -4.70052 -13.6776
ltibia 27.5183
lfoot -17.1845 4.3002
ltoes -13.4565
3224
root -0.767378 15.5105 0.230496 -8.34276 2.96451 -0.283243
lowerback 7.6645 -3.55965 -15.4647
upperback -4.90599 -7.68904 -12.754
thorax -9.73634 -3.23695 -4.27804
lowerneck 6.60887 -18.4182 -25.4595
upperneck -0.346388 -27.0899 18.5893
head 4.78009 -13.6992 7.51532
rclavicle -2.22639e-014 -2.22639e-014
rhumerus 2.16723 -21.4238 -10.7948
rradius 81.4189
rwrist 0.444935
rhand 29.2012 8.1535
rfingers 7.12502
rthumb 52.9874 -11.3468
lclavicle -2.22639e-014 -2.22639e-014
lhumerus 34.7688 1.44717 50.4723
lradius 96.2638
lwrist 16.1072
lhand 8.01115 33.8261
lfingers 7.12502
lthumb 33.2376 60.7759
rfemur 0.160071 5.21852 22.7555
rtibia 34.768
rfoot -21.39 -13.8717
rtoes -9.5217
lfemur 2.27752 -4.71921 -13.4998
ltibia 27.6692
lfoot -17.2963 4.56015
ltoes -13.22
3225
root -0.759266 15.5133 0.208871 -8.28833 2.55293 -0.48329
lowerback 7.73697 -3.54829 -15.4379
upperback -4.8573 -7.68705 -12.7936
thorax -9.7337 -3.24214 -4.33143
lowerneck 6.89015 -18.3982 -25.4425
upperneck -0.469345 -27.1185 18.6084
head 4.7058 -13.728 7.54967
rclavicle 6.36111e-015 -4.77083e-014
rhumerus 1.86424 -21.5751 -10.5523
rradius 81.4092
rwrist 0.551961
rhand 29.2786 8.32562
rfingers 7.12502
rthumb 53.0572 -11.1304
lclavicle 6.36111e-015 -4.77083e-014
lhumerus 34.5409 1.35547 50.4859
lradius 96.2902
lwrist 15.9041
lhand 8.00828 33.6819
lfingers 7.12502
lthumb 33.2349 60.6322
rfemur -0.0373854 5.40126 22.9333
rtibia 34.7399
rfoot -21.2302 -13.6822
rtoes -9.43017
lfemur 2.16305 -4.65427 -13.3076
ltibia 27.8081
lfoot -17.4009 4.73286
ltoes -12.6902
3226
root -0.752597 15.5164 0.188259 -8.27627 2.14309 -0.712133
lowerback 7.84887 -3.5165 -15.3931
upperback -4.7639 -7.65949 -12.8652
thorax -9.71088 -3.23969 -4.43071
lowerneck 7.10142 -18.3909 -25.3147
upperneck -0.565656 -27.1444 18.6278
head 4.63598 -13.7533 7.56546
rclavicle -6.20208e-014 9.22361e-014
rhumerus 1.58012 -21.7316 -10.2286
rradius 81.1879
rwrist 0.598916
rhand 29.524 8.69376
rfingers 7.12502
rthumb 53.2785 -10.6207
lclavicle -6.20208e-014 9.22361e-014
lhumerus 34.4444 1.20412 50.4225
lradius 96.2212
lwrist 15.9438
lhand 8.07253 33.6837
lfingers 7.12502
lthumb 33.296 60.621
rfemur -0.199188 5.5973 23.1635
rtibia 34.7507
rfoot -21.1066 -13.5512
rtoes -9.35158
lfemur 2.12638 -4.55013 -13.0714
ltibia 27.9062
lfoot -17.4803 4.91978
ltoes -12.443
3227
root -0.744188 15.5192 0.165174 -8.17709 1.69263 -0.676191
lowerback 7.95435 -3.45951 -15.5896
upperback -4.72812 -7.63989 -12.9675
thorax -9.73284 -3.22323 -4.44165
lowerneck 7.25422 -18.3934 -25.3881
upperneck -0.516425 -27.2019 18.674
head 4.65616 -13.7921 7.58859
rclavicle 2.22639e-014 -9.54166e-014
rhumerus 1.26732 -21.6389 -9.71706
rradius 81.0474
rwrist 0.642837
rhand 29.6579 8.94368
rfingers 7.12502
rthumb 53.3991 -10.2927
lclavicle 2.22639e-014 -9.54166e-014
lhumerus 34.3481 1.07205 50.416
lradius 96.1575
lwrist 16.098
lhand 8.10009 33.7219
lfingers 7.12502
lthumb 33.3222 60.6536
rfemur -0.504504 5.82033 23.0695
rtibia 34.7909
rfoot -20.9384 -13.3341
rtoes -9.49971
lfemur 2.01765 -4.41515 -13.1432
ltibia 27.9776
lfoot -17.5289 5.1274
ltoes -12.1019
3228
root -0.733649 15.5236 0.141505 -8.01258 1.19851 -0.589523
lowerback 8.01745 -3.43633 -15.8302
upperback -4.76861 -7.66964 -12.9964
thorax -9.79962 -3.21999 -4.34392
lowerneck 7.51804 -18.3518 -25.6592
upperneck -0.536274 -27.2285 18.7259
head 4.65812 -13.8187 7.65364
rclavicle 1.11319e-014 -4.77083e-014
rhumerus 1.11958 -21.3109 -9.27554
rradius 81.0089
rwrist 0.730198
rhand 29.5477 8.85613
rfingers 7.12502
rthumb 53.2999 -10.4445
lclavicle 1.11319e-014 -4.77083e-014
lhumerus 34.0318 1.02583 50.4869
lradius 96.151
lwrist 16.3246
lhand 8.21393 33.7959
lfingers 7.12502
lthumb 33.4304 60.7043
rfemur -0.883092 6.06342 22.9066
rtibia 34.8277
rfoot -20.7223 -13.1269
rtoes -9.66085
lfemur 1.84696 -4.22136 -13.2713
ltibia 28.0224
lfoot -17.5181 5.41259
ltoes -12.1174
3229
root -0.724333 15.5279 0.119017 -7.87208 0.817728 -0.655691
lowerback 8.12308 -3.49508 -15.957
upperback -4.77311 -7.79311 -12.9791
thorax -9.84951 -3.26746 -4.23492
lowerneck 7.67935 -18.2956 -25.8512
upperneck -0.577304 -27.2053 18.8035
head 4.65331 -13.8161 7.71823
rclavicle 7.31528e-014 -9.54166e-015
rhumerus 1.08917 -21.0449 -8.98518
rradius 80.9799
rwrist 0.748469
rhand 29.5661 8.84297
rfingers 7.12502
rthumb 53.3164 -10.447
lclavicle 7.31528e-014 -9.54166e-015
lhumerus 33.647 1.07317 50.5857
lradius 96.2197
lwrist 16.6103
lhand 8.47185 33.8563
lfingers 7.12502
lthumb 33.6755 60.7115
rfemur -1.20511 6.23365 22.9173
rtibia 34.8842
rfoot -20.6284 -12.8438
rtoes -8.92265
lfemur 1.7073 -4.04594 -13.2026
ltibia 27.972
lfoot -17.4995 5.65845
ltoes -12.7121
3230
root -0.713973 15.5319 0.102589 -7.83063 0.509091 -0.7913
lowerback 8.14943 -3.55573 -15.9612
upperback -4.64131 -7.8584 -13.0216
thorax -9.71599 -3.31074 -4.2658
lowerneck 7.74464 -18.269 -25.9601
upperneck -0.583841 -27.2061 18.9471
head 4.67907 -13.8228 7.77651
rclavicle 1.43125e-014 3.49861e-014
rhumerus 0.829994 -20.8403 -8.4981
rradius 80.9921
rwrist 0.491346
rhand 29.3599 9.13506
rfingers 7.12502
rthumb 53.1305 -10.2743
lclavicle 1.43125e-014 3.49861e-014
lhumerus 33.4766 1.06734 50.6202
lradius 96.2023
lwrist 16.9485
lhand 8.2891 33.9211
lfingers 7.12502
lthumb 33.5019 60.8141
rfemur -1.37195 6.32353 22.9972
rtibia 34.9276
rfoot -20.6217 -12.5137
rtoes -8.06939
lfemur 1.73238 -3.93497 -13.0649
ltibia 27.8615
lfoot -17.5135 5.78384
ltoes -12.7841
3231
root -0.700667 15.5327 0.090327 -7.92474 0.215995 -0.557446
lowerback 8.20275 -3.53105 -16.3064
upperback -4.45074 -7.85616 -13.2006
thorax -9.52238 -3.31058 -4.2843
lowerneck 7.825 -18.2951 -26.0105
upperneck -0.553962 -27.283 19.0656
head 4.71794 -13.8683 7.80645
rclavicle 4.77083e-015 2.22639e-014
rhumerus 0.373085 -20.5975 -7.89361
rradius 81.1224
rwrist 0.0844677
rhand 29.3015 9.36361
rfingers 7.12502
rthumb 53.0779 -10.0793
lclavicle 4.77083e-015 2.22639e-014
lhumerus 33.3985 0.942261 50.5998
lradius 96.1741
lwrist 17.3926
lhand 7.64186 34.0491
lfingers 7.12502
lthumb 32.8864 61.0732
rfemur -1.39584 6.30479 22.6508
rtibia 34.9737
rfoot -20.4008 -12.4266
rtoes -9.23828
lfemur 1.98378 -3.86448 -13.406
ltibia 27.7227
lfoot -17.5407 6.00172
ltoes -12.6738
3232
root -0.689757 15.5329 0.0730492 -8.04888 -0.168427 -0.35859
lowerback 8.39368 -3.4716 -16.668
upperback -4.33633 -7.86577 -13.3721
thorax -9.49841 -3.30505 -4.27968
lowerneck 8.08404 -18.325 -25.8523
upperneck -0.715675 -27.357 19.0401
head 4.61942 -13.9173 7.80503
rclavicle -3.02153e-014 -4.13472e-014
rhumerus -0.052792 -20.3148 -7.42817
rradius 81.2278
rwrist -0.31028
rhand 29.5137 9.43363
rfingers 7.12502
rthumb 53.2692 -9.88677
lclavicle -3.02153e-014 -4.13472e-014
lhumerus 33.1452 0.720225 50.4796
lradius 96.2783
lwrist 17.6298
lhand 7.34667 34.1066
lfingers 7.12502
lthumb 32.6056 61.1892
rfemur -1.43186 6.4158 22.3969
rtibia 35.0353
rfoot -20.1244 -12.4511
rtoes -10.5226
lfemur 2.25731 -3.68968 -13.6749
ltibia 27.5769
lfoot -17.5618 6.1762
ltoes -12.4215
